<svg xmlns="http://www.w3.org/2000/svg" xmlns:xlink="http://www.w3.org/1999/xlink" viewBox="0,0,256,256" width="24px" height="24px" fill-rule="nonzero"><g fill="#000000" fill-rule="nonzero" stroke="none" stroke-width="1" stroke-linecap="butt" stroke-linejoin="miter" stroke-miterlimit="10" stroke-dasharray="" stroke-dashoffset="0" font-family="none" font-weight="none" font-size="none" text-anchor="none" style="mix-blend-mode: normal"><g transform="scale(10.66667,10.66667)"><path d="M20.112,10.776v-0.738h-1.401l-0.616,-0.011c-0.526,0 -0.886,0.346 -1.027,0.749v-0.738h-1.568v4.787h1.568v-1.026v-1.589c0,-0.477 0.387,-0.864 0.864,-0.864h0.611v3.48h1.568v-1.026v-1.59c0,-0.477 0.387,-0.864 0.864,-0.864h0.779v-1.308l-0.616,-0.011c-0.525,0 -0.884,0.347 -1.026,0.749z"></path><path d="M8.952,10.138l-0.841,2.767l-0.842,-2.767h-1.568l1.704,4.787h0.091h1.229h0.092l1.703,-4.787z"></path><path d="M2.544,10.138v-0.319c0,-0.279 0.227,-0.506 0.506,-0.506h0.99v-1.313h-1.36c-0.941,0 -1.704,0.763 -1.704,1.704v0.434h-0.917v1.269h0.917v3.518h1.568v-3.518h1.496v3.518h1.568v-3.518v-1.269h-1.568z"></path><path d="M12.695,10.074h-0.191c-1.285,0 -2.326,1.041 -2.326,2.326v0.263c0,1.285 1.041,2.326 2.326,2.326h0.424c0.88,0 1.633,-0.543 1.942,-1.312l-1.383,-0.404c0,0 -0.166,0.474 -0.742,0.474c-0.651,0 -0.997,-0.357 -1.042,-0.761v0v-0.002c-0.003,-0.029 -0.005,-0.059 -0.005,-0.089h1.769h1.555v-0.495c-0.001,-1.285 -1.042,-2.326 -2.327,-2.326zM11.699,11.972c0.019,-0.43 0.373,-0.774 0.808,-0.774h0.15c0.435,0 0.789,0.343 0.808,0.774z"></path><path d="M23.025,13.086c-0.539,0 -0.975,0.437 -0.975,0.975c0,0.539 0.437,0.975 0.975,0.975c0.539,0 0.975,-0.437 0.975,-0.975c0,-0.539 -0.437,-0.975 -0.975,-0.975z" opacity="0.3"></path></g></g></svg>