<?xml version="1.0" standalone="no"?>
<!DOCTYPE svg PUBLIC "-//W3C//DTD SVG 20010904//EN"
 "http://www.w3.org/TR/2001/REC-SVG-20010904/DTD/svg10.dtd">
<svg version="1.0" xmlns="http://www.w3.org/2000/svg"
 width="1024.000000pt" height="1024.000000pt" viewBox="0 0 1024.000000 1024.000000"
 preserveAspectRatio="xMidYMid meet">

<g transform="translate(0.000000,1024.000000) scale(0.100000,-0.100000)"
fill="#000000" stroke="none">
<path d="M4880 9650 c-468 -21 -933 -129 -1383 -321 -681 -291 -1289 -782
-1700 -1371 -289 -415 -458 -778 -581 -1250 -78 -295 -114 -565 -123 -913 -12
-466 46 -872 188 -1340 101 -330 348 -828 526 -1061 38 -50 73 -96 77 -102 4
-6 -4 -47 -18 -91 -62 -198 -72 -461 -23 -651 68 -261 218 -503 466 -750 321
-318 742 -605 1181 -801 217 -97 652 -232 925 -287 351 -71 848 -86 1210 -36
832 115 1643 501 2239 1065 454 430 622 858 527 1349 -12 57 -28 125 -36 150
l-16 47 66 88 c130 175 292 455 390 674 175 390 301 899 336 1354 19 250 -1
674 -46 952 -60 374 -214 846 -390 1196 -131 259 -392 622 -614 852 -463 480
-994 821 -1598 1026 -521 176 -1032 247 -1603 221z m636 -265 c82 -8 202 -24
265 -35 192 -35 517 -123 667 -182 32 -12 43 -28 20 -28 -16 0 -891 -262
-1153 -345 -110 -35 -310 -96 -445 -135 -135 -39 -355 -107 -490 -150 -135
-43 -373 -115 -530 -160 -157 -45 -350 -101 -430 -125 -601 -180 -883 -267
-901 -278 -11 -6 -30 -30 -42 -52 -19 -38 -21 -59 -24 -420 -3 -213 0 -414 5
-458 12 -93 42 -139 108 -169 l44 -19 0 -1224 c0 -791 4 -1233 10 -1250 26
-68 214 -209 353 -265 128 -51 228 -71 388 -77 219 -8 348 17 628 121 l124 47
391 -3 392 -3 146 -73 c80 -41 154 -72 164 -70 16 3 19 14 22 76 l3 72 692 0
c734 0 795 4 970 50 303 80 556 250 732 492 55 75 144 247 175 338 95 280 104
600 24 878 -82 282 -269 552 -494 711 -74 53 -261 151 -287 151 -18 0 -17 3
12 46 l25 37 0 298 0 299 -28 31 c-23 26 -38 32 -92 39 -36 5 -719 9 -1519 9
-800 1 -1456 3 -1459 5 -2 3 5 9 15 15 20 10 673 209 1093 333 222 66 1134
337 1523 453 193 58 218 70 248 118 29 47 24 70 -97 451 -19 60 -33 110 -30
113 10 10 372 -185 501 -271 663 -443 1125 -1016 1410 -1751 209 -539 286
-1156 220 -1755 -26 -239 -88 -510 -177 -780 -130 -399 -294 -708 -558 -1055
l-78 -102 29 -42 c100 -149 116 -490 36 -726 -149 -436 -637 -902 -1287 -1229
-334 -169 -608 -267 -953 -341 -246 -53 -417 -69 -732 -70 -305 0 -400 7 -655
51 -385 66 -731 181 -1065 353 -408 210 -687 411 -951 684 -295 305 -414 557
-414 875 0 172 34 319 96 413 17 26 16 26 -52 115 -300 392 -516 848 -644
1354 -101 399 -126 618 -117 1019 13 626 162 1198 436 1676 89 155 255 401
357 530 110 139 425 453 569 568 389 310 783 523 1244 671 303 98 588 147 976
170 108 6 437 -5 591 -19z m864 -696 c110 -101 200 -186 200 -189 0 -8 -455
-142 -488 -144 -24 -1 -63 31 -240 193 -117 107 -212 198 -212 201 0 4 64 26
143 49 78 23 189 56 247 75 101 32 106 32 127 15 13 -9 113 -99 223 -200z
m-1233 -131 c117 -101 401 -368 395 -371 -21 -13 -516 -157 -525 -154 -13 4
-435 389 -436 397 -1 3 59 23 132 43 72 21 188 55 257 77 69 21 128 39 132 39
4 1 24 -14 45 -31z m-871 -485 c117 -108 214 -198 214 -199 0 -5 -245 -80
-370 -114 -63 -17 -123 -34 -132 -36 -12 -4 -52 28 -130 103 -62 59 -159 149
-215 200 l-103 92 98 31 c99 30 400 117 415 119 4 1 105 -88 223 -196z m-1406
-348 c39 -20 60 -53 60 -92 0 -68 -43 -113 -111 -113 -46 0 -99 56 -99 105 0
47 14 71 53 95 38 24 59 25 97 5z m1700 -300 c0 -3 -53 -87 -118 -187 -65
-101 -136 -211 -157 -245 l-38 -63 -289 0 -288 0 27 43 c91 145 212 332 252
389 l46 68 283 0 c155 0 282 -2 282 -5z m1107 -45 c-17 -27 -90 -140 -162
-250 l-130 -200 -282 0 c-156 0 -283 2 -283 5 0 4 266 416 302 468 l19 27 285
0 284 0 -33 -50z m1143 45 c0 -6 -160 -256 -252 -392 l-68 -103 -280 0 c-187
0 -280 3 -280 10 0 6 26 50 58 98 32 48 103 156 156 240 l98 152 284 0 c156 0
284 -2 284 -5z m-3918 -232 c36 -35 45 -81 23 -126 -15 -33 -64 -67 -95 -67
-7 0 -27 7 -45 16 -42 19 -69 73 -61 118 6 31 45 77 76 89 27 11 74 -3 102
-30z m476 11 c68 -44 48 -167 -31 -193 -94 -32 -178 80 -123 164 34 52 99 64
154 29z m3116 -479 c486 -101 857 -493 942 -995 22 -132 15 -348 -14 -460 -96
-365 -323 -643 -656 -805 -242 -118 -468 -150 -710 -99 -488 101 -836 447
-943 936 -24 114 -24 350 1 468 36 171 110 348 204 480 111 158 321 330 487
399 95 40 233 79 320 90 93 13 272 6 369 -14z m594 -99 c255 -128 453 -346
558 -613 137 -347 120 -725 -46 -1053 -60 -121 -113 -194 -210 -291 -95 -96
-194 -166 -320 -228 -47 -22 -76 -35 -66 -29 164 108 318 252 399 376 149 226
220 467 220 747 0 221 -33 372 -119 554 -91 192 -246 384 -416 512 -44 32 -77
59 -73 59 3 0 36 -15 73 -34z m-2338 -1725 c124 -36 251 -103 325 -172 36 -34
65 -70 65 -80 0 -26 -6 -24 -52 16 -58 49 -199 120 -304 151 -71 21 -117 27
-228 32 -184 6 -295 -13 -520 -90 -482 -167 -539 -181 -731 -180 -197 1 -363
50 -529 156 -56 36 -56 36 -56 87 l0 51 43 -37 c50 -44 218 -127 302 -150 38
-11 116 -19 215 -22 221 -7 284 7 723 161 264 93 336 107 522 102 115 -3 167
-9 225 -25z m-116 -137 c13 -5 16 -25 16 -115 0 -122 6 -115 -84 -103 l-46 7
0 108 0 109 49 0 c27 0 56 -3 65 -6z m-521 -176 l-2 -113 -58 -22 c-32 -12
-60 -22 -63 -22 -3 -1 -5 49 -5 109 l0 110 60 24 c33 13 62 25 65 25 3 1 4
-50 3 -111z m-1115 -56 l52 -16 0 -114 c0 -106 -1 -113 -19 -107 -10 3 -38 11
-62 18 l-44 13 -5 117 c-4 102 -3 116 10 111 8 -3 39 -13 68 -22z m592 -127
c0 -63 -3 -115 -7 -115 -5 -1 -34 -7 -65 -14 l-58 -14 0 117 0 118 53 10 c28
6 58 11 65 12 9 1 12 -28 12 -114z m1155 35 c44 -11 112 -35 150 -54 103 -49
215 -137 215 -170 0 -2 -22 10 -49 28 -65 44 -180 91 -288 118 -70 17 -118 22
-238 22 -212 1 -231 -4 -700 -167 -188 -66 -279 -81 -450 -74 -235 9 -407 66
-560 187 -41 33 -75 63 -75 66 0 6 -4 8 82 -49 125 -84 287 -132 483 -144 184
-11 350 24 632 131 179 69 324 110 434 126 96 13 272 4 364 -20z"/>
<path d="M2725 3823 c-77 -28 -139 -68 -185 -120 -189 -215 -180 -604 18 -802
69 -70 120 -97 216 -118 162 -34 366 29 450 140 44 57 37 78 -50 141 -42 31
-82 56 -88 56 -7 0 -30 -19 -51 -41 -70 -73 -152 -89 -235 -46 -80 40 -120
131 -120 273 0 112 27 197 78 247 78 76 160 69 253 -20 38 -36 64 -53 74 -50
29 12 166 109 171 122 17 42 -89 159 -184 203 -50 23 -72 27 -177 29 -95 3
-130 0 -170 -14z"/>
<path d="M7226 3830 c-30 -5 -30 -7 -186 -480 -86 -262 -160 -492 -164 -513
-10 -54 13 -62 145 -51 l102 9 30 88 29 87 156 -2 155 -3 23 -74 c12 -41 29
-80 36 -88 18 -18 193 -29 230 -15 25 10 26 13 17 54 -19 85 -321 979 -332
983 -21 7 -211 11 -241 5z m163 -476 l48 -169 -95 -3 c-52 -1 -96 -1 -98 1 -2
1 18 82 44 180 26 97 48 173 50 169 1 -5 24 -84 51 -178z"/>
<path d="M3402 3818 c-17 -17 -17 -999 0 -1016 16 -16 220 -16 236 0 9 9 12
135 12 504 0 434 -2 494 -16 508 -20 20 -213 23 -232 4z"/>
<path d="M3856 3809 c-13 -19 -15 -89 -15 -478 0 -251 3 -474 7 -496 l7 -40
104 -3 c57 -1 109 2 114 7 5 5 9 121 8 283 0 184 3 268 9 258 6 -8 81 -134
168 -280 l158 -265 99 -3 c55 -2 110 0 123 3 l22 5 0 503 c0 378 -3 506 -12
515 -14 14 -196 16 -218 3 -12 -8 -14 -52 -11 -278 l3 -268 -128 210 c-70 116
-143 237 -163 270 -19 33 -40 63 -46 67 -5 4 -56 8 -112 8 -93 0 -103 -2 -117
-21z"/>
<path d="M4905 3820 l-40 -5 -3 -499 c-1 -360 1 -503 9 -512 9 -11 70 -14 310
-14 285 0 299 1 309 19 16 30 13 196 -4 210 -10 8 -64 10 -195 5 l-181 -7 0
93 0 93 149 -6 c119 -5 152 -3 160 7 8 9 11 53 9 122 l-3 109 -157 -4 -158 -3
0 87 0 87 178 -3 177 -4 5 99 c3 63 1 104 -6 114 -9 12 -53 15 -265 16 -140 0
-272 -1 -294 -4z"/>
<path d="M5706 3814 c-14 -14 -16 -74 -16 -508 0 -411 2 -496 14 -505 9 -8 48
-11 112 -9 l99 3 0 288 c0 158 2 287 5 287 3 0 12 -22 22 -48 25 -74 209 -506
220 -519 15 -19 52 -16 70 5 11 13 150 338 227 532 7 17 10 -58 10 -250 1
-201 4 -279 13 -288 13 -13 183 -17 212 -6 14 5 16 60 16 508 0 377 -3 505
-12 514 -17 17 -262 17 -276 -1 -8 -9 -131 -324 -218 -557 -5 -11 -8 -8 -15
10 -119 321 -205 538 -217 548 -25 19 -246 17 -266 -4z"/>
<path d="M3255 2528 c-3 -7 -4 -130 -3 -273 l3 -260 65 0 65 0 3 98 c2 88 5
97 22 97 14 0 34 -27 72 -97 l53 -98 70 0 c86 0 87 2 15 121 l-52 86 39 40
c37 38 38 40 38 116 0 90 -19 127 -82 158 -49 25 -300 34 -308 12z m242 -120
c19 -19 20 -75 2 -93 -8 -8 -36 -18 -62 -21 l-47 -7 0 73 0 73 46 -6 c25 -2
53 -11 61 -19z"/>
<path d="M3836 2275 c-58 -174 -85 -270 -79 -276 6 -6 37 -9 69 -7 l59 3 19
53 19 52 82 0 82 0 19 -52 19 -53 65 0 c58 0 65 2 67 20 1 11 -37 133 -85 270
l-87 250 -80 3 -80 3 -89 -266z m202 8 l20 -73 -54 0 c-30 0 -54 1 -54 3 0 1
7 25 15 52 9 28 20 68 26 90 13 46 14 45 47 -72z"/>
<path d="M4346 2524 c-3 -9 -6 -125 -6 -258 0 -181 3 -247 13 -260 10 -13 24
-17 67 -14 l55 3 3 88 3 87 65 0 c118 0 185 55 192 161 5 73 -11 120 -53 158
-47 41 -91 51 -221 51 -93 0 -113 -3 -118 -16z m234 -124 c47 -47 11 -120 -60
-120 l-40 0 0 70 0 70 40 0 c27 0 47 -7 60 -20z"/>
<path d="M5056 2524 c-10 -26 -5 -484 5 -512 8 -21 14 -23 61 -20 l53 3 3 88
3 87 67 0 c139 1 216 91 191 226 -20 107 -72 137 -250 142 -115 4 -127 2 -133
-14z m226 -121 c11 -10 18 -30 18 -54 0 -46 -27 -69 -82 -69 l-38 0 0 70 0 70
42 0 c24 0 49 -7 60 -17z"/>
<path d="M5545 2528 c-3 -7 -4 -130 -3 -273 l3 -260 60 0 60 0 3 108 3 107 89
0 90 0 0 -97 c0 -54 4 -104 9 -111 5 -9 26 -12 67 -10 l59 3 0 270 0 270 -65
0 -65 0 -3 -97 -3 -98 -89 0 -89 0 -3 98 -3 97 -58 3 c-40 2 -59 -1 -62 -10z"/>
<path d="M6125 2528 c-3 -7 -4 -130 -3 -273 l3 -260 65 0 65 0 0 270 0 270
-63 3 c-44 2 -64 -1 -67 -10z"/>
<path d="M6397 2533 c-4 -3 -7 -122 -7 -263 0 -291 -2 -283 77 -278 l48 3 5
160 5 160 41 -95 c23 -52 52 -120 65 -150 26 -64 42 -85 61 -78 7 3 43 77 78
164 l65 158 5 -160 5 -159 60 0 60 0 0 270 0 270 -81 3 -82 3 -26 -68 c-97
-258 -93 -250 -103 -223 -5 14 -29 79 -53 145 -24 66 -48 126 -53 133 -10 13
-158 18 -170 5z"/>
<path d="M3944 1926 c-3 -8 -4 -29 -2 -47 3 -29 8 -34 38 -42 22 -5 47 -4 64
2 25 10 27 15 24 53 l-3 43 -58 3 c-43 2 -59 -1 -63 -12z"/>
<path d="M6187 6506 c-94 -26 -181 -113 -207 -204 -27 -99 0 -223 65 -300 81
-94 242 -126 350 -70 113 59 170 154 170 283 0 69 -4 88 -29 138 -17 32 -46
72 -65 89 -75 66 -188 91 -284 64z"/>
<path d="M5550 6031 c-107 -35 -184 -114 -205 -210 -32 -148 29 -286 156 -356
47 -26 64 -30 134 -30 93 0 143 21 212 87 60 58 87 126 86 214 -2 167 -122
293 -288 300 -38 2 -81 0 -95 -5z"/>
<path d="M6813 6026 c-254 -83 -278 -439 -39 -564 69 -36 189 -38 253 -4 110
58 163 141 171 263 4 67 1 83 -23 136 -32 73 -83 124 -149 154 -61 27 -157 34
-213 15z"/>
<path d="M6180 5709 c-73 -42 -106 -121 -86 -200 25 -93 100 -146 197 -137
169 17 216 254 68 337 -49 28 -131 28 -179 0z"/>
<path d="M5779 5296 c-127 -45 -198 -147 -199 -282 0 -90 21 -151 72 -209 64
-73 116 -98 214 -103 72 -4 88 -1 135 21 115 54 179 150 179 268 0 137 -52
231 -159 286 -54 29 -73 33 -134 33 -40 -1 -88 -7 -108 -14z"/>
<path d="M6570 5301 c-50 -16 -108 -51 -134 -82 -115 -137 -106 -326 23 -442
59 -53 98 -70 177 -75 94 -6 158 15 223 74 71 64 101 132 101 229 0 61 -5 87
-26 130 -31 66 -107 137 -171 159 -48 17 -149 20 -193 7z"/>
</g>
</svg>
